REM MD5 3e2c3ccaec3e4e1e5f56f9b4610ee468
FILE "Block Kuzushi 2 (Japan).bin" BINARY
  TRACK 01 MODE2/2352
    INDEX 01 00:00:00
  TRACK 02 AUDIO
    INDEX 00 01:25:06
    INDEX 01 01:27:06
  TRACK 03 AUDIO
    INDEX 00 01:33:38
    INDEX 01 01:35:38
  TRACK 04 AUDIO
    INDEX 00 01:40:70
    INDEX 01 01:42:70
  TRACK 05 AUDIO
    INDEX 00 01:49:02
    INDEX 01 01:51:02
  TRACK 06 AUDIO
    INDEX 00 06:51:03
    INDEX 01 06:53:03
REM LEADOUT 12:48:74
